:FULLY-SPECIFIED
:FORCE-ALL-JOINTS-BE-3DOF
:DEGREES
917
root 2.78044 16.19 32.3823 1.94802 10.3974 2.92091
lfemur -13.3158 4.83577 -1.81858
ltibia 31.1541 -0 0
lfoot -13.4771 -32.6473 0.0698228
ltoes -2.56665 0 0
rfemur -18.6731 -5.34738 -8.27255
rtibia 42.7646 -0 0
rfoot 7.54625 -15.3211 -0.386611
rtoes -4.87746 0 0
lowerback -0.0053006 0.0104808 -2.74473
upperback -0.591809 0.00840437 -4.82254
thorax -0.620573 -0.00740948 -3.45555
lowerneck -7.14292 -4.99977 -1.10859
upperneck 4.22302 -6.91993 5.53578
head 2.89557 -3.27316 1.64772
lclavicle 1.83752e-14 1.35174e-14 0
lhumerus -52.0678 -36.6495 108.457
lradius 58.4394 -0 0
lwrist 14.5478 0 0
lhand 35.7795 19.3207 0.211765
lfingers 7.12502 -0 0
lthumb 58.7267 33.6908 0.0245361
rclavicle 1.83752e-14 1.35174e-14 0
rhumerus -54.6737 36.0702 -95.9342
rradius 113.237 -0 0
rwrist -3.21174 0 0
rhand 0.15413 -12.8052 0.12374
rfingers 7.12502 -0 0
rthumb 25.6299 -40.1951 0.482406
918
root 2.70553 16.1496 32.4161 2.20523 9.54591 3.19927
lfemur -11.8975 4.23337 -1.48242
ltibia 28.9174 -0 0
lfoot -14.3328 -32.8421 0.0800163
ltoes -3.43762 0 0
rfemur -19.2201 -5.31561 -8.54971
rtibia 42.8424 -0 0
rfoot 6.45532 -14.4748 -0.443142
rtoes -8.31808 0 0
lowerback -0.294527 -0.0504307 -2.72077
upperback -0.66553 -0.0586066 -5.09303
thorax -0.539598 -0.0446863 -3.75625
lowerneck -7.16151 -4.64201 -0.895758
upperneck 4.17546 -6.45626 5.50029
head 2.859 -3.04126 1.62169
lclavicle 1.83752e-14 1.35174e-14 0
lhumerus -52.3535 -36.9696 108.322
lradius 58.3379 -0 0
lwrist 15.2452 0 0
lhand 36.4425 20.0833 0.242692
lfingers 7.12502 -0 0
lthumb 59.2835 33.796 0.0281159
rclavicle 1.83752e-14 1.35174e-14 0
rhumerus -54.0908 37.6271 -92.3962
rradius 112.358 -0 0
rwrist -3.9244 0 0
rhand 2.17293 -12.6588 0.141889
rfingers 7.12502 -0 0
rthumb 27.5437 -39.5929 0.553154
919
root 2.63062 16.1092 32.4498 2.45765 8.69321 3.47309
lfemur -10.4837 3.62286 -1.16155
ltibia 26.6807 -0 0
lfoot -15.1886 -33.0371 0.087299
ltoes -4.30859 0 0
rfemur -19.7672 -5.28648 -8.82714
rtibia 42.9202 -0 0
rfoot 5.36367 -13.6276 -0.483545
rtoes -11.7587 0 0
lowerback -0.58378 -0.11122 -2.6965
upperback -0.738933 -0.125965 -5.36343
thorax -0.458429 -0.0815377 -4.05701
lowerneck -7.17876 -4.28418 -0.68315
upperneck 4.12766 -5.99263 5.46446
head 2.82233 -2.80937 1.59553
lclavicle 1.83752e-14 1.35174e-14 0
lhumerus -52.6395 -37.2903 108.189
lradius 58.2363 -0 0
lwrist 15.9426 0 0
lhand 37.1059 20.8463 0.264789
lfingers 7.12502 -0 0
lthumb 59.8403 33.9012 0.0306731
rclavicle 1.83752e-14 1.35174e-14 0
rhumerus -53.3727 39.1517 -88.7617
rradius 111.478 -0 0
rwrist -4.63707 0 0
rhand 4.19178 -12.5118 0.154869
rfingers 7.12502 -0 0
rthumb 29.4581 -38.9888 0.603751
920
root 2.55571 16.0688 32.4836 2.70541 7.83934 3.74253
lfemur -9.07422 3.00465 -0.856059
ltibia 24.4439 -0 0
lfoot -16.0443 -33.2321 0.0916694
ltoes -5.17956 0 0
rfemur -20.3143 -5.25999 -9.10483
rtibia 42.998 -0 0
rfoot 4.27154 -12.7797 -0.507797
rtoes -15.1993 0 0
lowerback -0.873059 -0.171887 -2.67193
upperback -0.812018 -0.193669 -5.63375
thorax -0.377067 -0.117962 -4.35782
lowerneck -7.19468 -3.92629 -0.470745
upperneck 4.0796 -5.52902 5.42826
head 2.78556 -2.5775 1.56922
lclavicle 1.83752e-14 1.35174e-14 0
lhumerus -52.9259 -37.6115 108.058
lradius 58.1347 -0 0
lwrist 16.64 0 0
lhand 37.7694 21.6094 0.27805
lfingers 7.12502 -0 0
lthumb 60.397 34.0065 0.0322076
rclavicle 1.83752e-14 1.35174e-14 0
rhumerus -52.5127 40.637 -85.0217
rradius 110.598 -0 0
rwrist -5.34973 0 0
rhand 6.21065 -12.3645 0.162663
rfingers 7.12502 -0 0
rthumb 31.373 -38.3832 0.634135
921
root 2.4808 16.0284 32.5173 2.94863 6.98434 4.00773
lfemur -7.6688 2.37914 -0.566034
ltibia 22.2072 -0 0
lfoot -16.9001 -33.4272 0.0931263
ltoes -6.05053 0 0
rfemur -20.8616 -5.23614 -9.38275
rtibia 43.0758 -0 0
rfoot 3.17917 -11.9316 -0.515882
rtoes -18.6399 0 0
lowerback -1.16237 -0.232429 -2.64704
upperback -0.884783 -0.261716 -5.90398
thorax -0.295515 -0.153959 -4.65868
lowerneck -7.20925 -3.56834 -0.258527
upperneck 4.03129 -5.06545 5.3917
head 2.74869 -2.34565 1.54276
lclavicle 1.83752e-14 1.35174e-14 0
lhumerus -53.2125 -37.9333 107.928
lradius 58.0332 -0 0
lwrist 17.3373 0 0
lhand 38.4331 22.3727 0.282471
lfingers 7.12502 -0 0
lthumb 60.9538 34.1118 0.0327191
rclavicle 1.83752e-14 1.35174e-14 0
rhumerus -51.5046 42.0754 -81.1671
rradius 109.718 -0 0
rwrist -6.06239 0 0
rhand 8.22954 -12.217 0.165262
rfingers 7.12502 -0 0
rthumb 33.2881 -37.777 0.644266
922
root 2.40588 15.9881 32.551 3.18746 6.12824 4.26881
lfemur -6.26713 1.74672 -0.291559
ltibia 19.9705 -0 0
lfoot -17.7559 -33.6223 0.0916694
ltoes -6.9215 0 0
rfemur -21.409 -5.21494 -9.66088
rtibia 43.1537 -0 0
rfoot 2.08679 -11.0834 -0.507797
rtoes -22.0805 0 0
lowerback -1.4517 -0.292844 -2.62186
upperback -0.957227 -0.330107 -6.17412
thorax -0.213775 -0.189528 -4.95959
lowerneck -7.2225 -3.21034 -0.0464779
upperneck 3.98271 -4.6019 5.35477
head 2.71172 -2.11382 1.51616
lclavicle 1.83752e-14 1.35174e-14 0
lhumerus -53.4994 -38.2555 107.8
lradius 57.9316 -0 0
lwrist 18.0347 0 0
lhand 39.0969 23.136 0.27805
lfingers 7.12502 -0 0
lthumb 61.5106 34.217 0.0322076
rclavicle 1.83752e-14 1.35174e-14 0
rhumerus -50.3424 43.4587 -77.1895
rradius 108.839 -0 0
rwrist -6.77506 0 0
rhand 10.2484 -12.0695 0.162663
rfingers 7.12502 -0 0
rthumb 35.2033 -37.1708 0.634135
923
root 2.33097 15.9477 32.5848 3.42201 5.27107 4.52593
lfemur -4.86888 1.10779 -0.0327144
ltibia 17.7338 -0 0
lfoot -18.6116 -33.8173 0.087299
ltoes -7.79247 0 0
rfemur -21.9565 -5.19638 -9.93919
rtibia 43.2315 -0 0
rfoot 0.994658 -10.2356 -0.483545
rtoes -25.5211 0 0
lowerback -1.74106 -0.353131 -2.59637
upperback -1.02935 -0.398838 -6.44419
thorax -0.131849 -0.224666 -5.26056
lowerneck -7.23441 -2.8523 0.165418
upperneck 3.93386 -4.13839 5.31747
head 2.67464 -1.882 1.48942
lclavicle 1.83752e-14 1.35174e-14 0
lhumerus -53.7868 -38.5783 107.673
lradius 57.8301 -0 0
lwrist 18.7321 0 0
lhand 39.7604 23.8991 0.264789
lfingers 7.12502 -0 0
lthumb 62.0673 34.3223 0.0306731
rclavicle 1.83752e-14 1.35174e-14 0
rhumerus -49.0211 44.7785 -73.0812
rradius 107.959 -0 0
rwrist -7.48772 0 0
rhand 12.2673 -11.9222 0.154869
rfingers 7.12502 -0 0
rthumb 37.1182 -36.5652 0.603751
